PathFileType	4	(X/Y/Z)	C:/Users/opensim2020/Desktop/walking_exp_matlab/subject06_walking13_straight_03_cyclic.trc																																																																																																																																																				
DataRate	CameraRate	NumFrames	NumMarkers	Units	OrigDataRate	OrigDataStartFrame	OrigNumFrames																																																																																																																																																
100	100	5	50	mm	100	2305	111																																																																																																																																																
Frame#	Time	LFHD			RFHD			LBHD			RBHD			C7			T10			CLAV			STRN			RBAK			LSHO			LUPA			LELB			LFRM			LWRA			LWRB			LFIN			RSHO			RUPA			RELB			RFRM			RWRA			RWRB			RFIN			LASI			RASI			LPSI			RPSI			LTHI			LKNE			LTIB			LANK			LHEE			LTOE			RTHI			RKNE			RTIB			RANK			RHEE			RTOE			*39			*40			*41			*42			*43			*44			*45			*46			*47			*48			*49		
		X1	Y1	Z1	X2	Y2	Z2	X3	Y3	Z3	X4	Y4	Z4	X5	Y5	Z5	X6	Y6	Z6	X7	Y7	Z7	X8	Y8	Z8	X9	Y9	Z9	X10	Y10	Z10	X11	Y11	Z11	X12	Y12	Z12	X13	Y13	Z13	X14	Y14	Z14	X15	Y15	Z15	X16	Y16	Z16	X17	Y17	Z17	X18	Y18	Z18	X19	Y19	Z19	X20	Y20	Z20	X21	Y21	Z21	X22	Y22	Z22	X23	Y23	Z23	X24	Y24	Z24	X25	Y25	Z25	X26	Y26	Z26	X27	Y27	Z27	X28	Y28	Z28	X29	Y29	Z29	X30	Y30	Z30	X31	Y31	Z31	X32	Y32	Z32	X33	Y33	Z33	X34	Y34	Z34	X35	Y35	Z35	X36	Y36	Z36	X37	Y37	Z37	X38	Y38	Z38	X39	Y39	Z39	X40	Y40	Z40	X41	Y41	Z41	X42	Y42	Z42	X43	Y43	Z43	X44	Y44	Z44	X45	Y45	Z45	X46	Y46	Z46	X47	Y47	Z47	X48	Y48	Z48	X49	Y49	Z49	X50	Y50	Z50
																																																																																																																																																							
98	0.97	531.91187	1638.80371	-1056.40466	511.10413	1621.94861	-927.2771	397.67868	1594.53601	-1080.76746	378.38806	1582.48242	-953.43091	379.65939	1429.70166	-1032.32947	342.64407	1099.78406	-1027.68896	488.72961	1350.22021	-1018.67725	528.08789	1175.91992	-1029.00366	295.69052	1256.06897	-970.65948	451.28323	1388.77124	-1184.85583	493.33313	1195.30298	-1265.49829	523.88379	1087.9845	-1284.10266	636.09338	991.82727	-1305.02271	759.40546	959.73859	-1260.87268	722.99792	909.70453	-1294.69531	810.30469	889.6601	-1298.40344	419.64093	1377.03857	-863.87073	340.20743	1185.80798	-792.40057	328.98224	1064.28162	-779.30908	313.81464	945.13684	-759.2608	343.3327	793.29156	-776.10797	284.16718	810.08502	-748.06982	299.13144	727.11163	-739.02429	519.14587	940.05963	-1136.19861	525.94763	947.82935	-914.69635	360.01569	966.91608	-1100.80981	373.42596	966.54718	-932.02795	407.7641	631.54547	-1186.03748	370.40244	470.26202	-1162.87622	248.73131	240.40619	-1151.3938	184.95302	78.96912	-1104.9668	140.22223	74.09055	-1060.33459	321.93906	33.21431	-1100.38538	539.77051	618.07025	-848.64545	589.24347	502.52802	-879.22614	633.19055	247.14471	-883.58307	693.77753	69.86726	-926.39618	666.82159	37.58715	-975.12445	850.59521	74.94497	-921.86365	426.55896	1681.84827	-1011.48309	NaN	NaN	NaN	NaN	NaN	NaN	NaN	NaN	NaN	NaN	NaN	NaN	NaN	NaN	NaN	NaN	NaN	NaN	NaN	NaN	NaN	NaN	NaN	NaN	NaN	NaN	NaN	NaN	NaN	NaN
99	0.98	543.27234	1637.68689	-1055.13184	522.21326	1620.67505	-926.0437	409.05255	1592.98108	-1079.68884	389.6113	1580.95154	-952.39594	391.29907	1428.18958	-1031.18848	354.56583	1098.27686	-1026.45605	500.51477	1348.79211	-1017.45111	539.94177	1174.4115	-1028.06592	307.46268	1254.42688	-969.77777	462.99271	1387.20154	-1183.71924	504.81604	1193.6051	-1264.24548	535.28015	1086.31689	-1282.83484	648.81628	991.85052	-1303.22888	772.31891	962.04968	-1258.28125	737.01276	911.2699	-1292.24109	824.73242	892.93195	-1295.45581	431.36966	1375.43018	-862.69464	350.80792	1184.60693	-791.62823	338.92807	1063.14136	-778.48621	322.93994	944.09692	-758.4906	351.30701	792.0495	-775.28198	292.26862	809.31427	-747.3822	306.35944	726.26831	-738.14325	530.50513	938.42102	-1135.58826	538.40692	946.49316	-914.1665	371.54971	965.46033	-1099.30981	385.63211	965.4931	-930.66632	417.60504	630.47223	-1185.31128	379.47375	469.25061	-1162.36816	253.43925	241.65685	-1151.49695	186.2529	81.40569	-1105.62354	141.32791	77.34167	-1061.20813	322.20639	33.13253	-1100.47925	553.34949	617.2301	-848.2019	601.31958	502.00143	-879.48456	644.39746	245.60591	-884.19226	704.76044	68.36764	-927.57965	677.44037	36.6499	-976.1452	861.22369	74.33486	-923.20062	437.70026	1680.42383	-1010.4176	NaN	NaN	NaN	NaN	NaN	NaN	NaN	NaN	NaN	NaN	NaN	NaN	NaN	NaN	NaN	NaN	NaN	NaN	NaN	NaN	NaN	NaN	NaN	NaN	NaN	NaN	NaN	NaN	NaN	NaN
100	0.99	554.45776	1636.63354	-1053.83923	533.32062	1619.49072	-924.79547	420.30341	1591.59509	-1078.43311	400.8212	1579.45276	-951.25006	403.01059	1426.76526	-1029.93323	366.41971	1096.97998	-1025.18176	512.4408	1347.49231	-1016.25226	551.88025	1173.07764	-1027.05579	319.42868	1252.88293	-968.7356	474.71161	1385.79285	-1182.48608	516.18323	1192.09314	-1262.82068	546.48663	1084.75903	-1281.47424	661.10046	991.8399	-1301.25195	784.61212	963.85687	-1255.69568	750.34192	912.50055	-1289.79932	838.36542	895.57733	-1292.48511	443.22165	1374.00842	-861.39008	361.73782	1183.53845	-790.62708	349.36646	1062.11108	-777.51788	332.41132	943.28656	-757.39044	359.92563	790.88831	-774.31702	300.87991	808.61841	-746.64197	314.57349	725.55402	-737.11426	542.02917	936.86292	-1134.8092	550.84149	945.42731	-913.38605	383.293	964.16394	-1097.85571	398.06076	964.55927	-929.43921	427.87332	629.29089	-1184.42517	389.30817	468.104	-1161.72485	258.66843	243.049	-1151.58936	187.80118	84.16539	-1106.35474	142.64687	81.10883	-1062.23779	322.42697	33.01484	-1100.55664	567.80676	617.07538	-847.80737	614.11902	502.02768	-880.19946	654.80475	244.0432	-884.9646	712.68054	66.45672	-928.74847	684.61969	36.13682	-976.72101	869.26416	70.41519	-924.7641	448.77411	1679.05847	-1009.24329	NaN	NaN	NaN	NaN	NaN	NaN	NaN	NaN	NaN	NaN	NaN	NaN	NaN	NaN	NaN	NaN	NaN	NaN	NaN	NaN	NaN	NaN	NaN	NaN	NaN	NaN	NaN	NaN	NaN	NaN
101	1	565.68048	1635.68225	-1052.67542	544.4325	1618.54639	-923.56122	431.72586	1590.22083	-1077.3728	412.03802	1578.15942	-949.97888	414.71869	1425.57324	-1028.51172	378.59082	1095.8385	-1023.72955	524.47046	1346.35974	-1014.89575	563.91711	1171.88318	-1025.91248	331.46008	1251.50146	-967.56158	486.42838	1384.57458	-1181.09753	527.51666	1190.81006	-1261.32153	557.36102	1083.24048	-1279.79199	673.08954	991.56226	-1299.53052	796.38757	965.1272	-1253.11218	762.89221	913.31598	-1287.2865	851.22089	897.55664	-1289.54895	455.26505	1372.80603	-859.96906	373.16571	1182.56274	-789.53601	360.38382	1061.11719	-776.4931	342.77353	942.34784	-756.64575	369.05475	789.82422	-773.58551	310.23984	808.05255	-745.82849	323.28973	724.93469	-736.24878	553.89526	935.5672	-1133.98901	563.46918	944.51678	-912.40192	395.13379	962.94574	-1096.49524	410.32971	963.9071	-927.89996	438.74017	628.04114	-1183.47705	400.15491	466.82544	-1160.88293	264.53732	244.64674	-1151.64404	189.69348	87.44656	-1107.12122	144.34088	85.46499	-1063.21045	322.7847	32.88905	-1100.64124	581.72681	617.04065	-848.14807	627.80341	502.87408	-880.99207	664.49139	242.76018	-886.10315	717.99927	64.73383	-929.72803	687.63788	37.61029	-977.67676	874.3324	59.88616	-925.98792	459.79977	1677.81702	-1008.03815	NaN	NaN	NaN	NaN	NaN	NaN	NaN	NaN	NaN	NaN	NaN	NaN	NaN	NaN	NaN	NaN	NaN	NaN	NaN	NaN	NaN	NaN	NaN	NaN	NaN	NaN	NaN	NaN	NaN	NaN
102	1.01	576.73639	1635.17114	-1051.3656	555.55658	1618.09192	-922.19867	443.04733	1589.13245	-1076.10938	423.39908	1577.09668	-948.75317	426.44748	1424.7312	-1027.03149	390.69882	1095.04663	-1022.28729	536.55402	1345.66418	-1013.4743	575.95789	1171.03491	-1024.74756	343.40292	1250.39966	-966.2049	498.17542	1383.66187	-1179.71899	538.67566	1189.64539	-1259.69934	568.11597	1082.02295	-1277.98328	683.9834	990.96735	-1297.14124	807.64337	965.94244	-1250.57983	774.78625	913.75989	-1284.77234	863.28687	898.86249	-1286.61389	467.4144	1371.86353	-858.41217	384.79172	1181.74854	-788.24396	371.66849	1060.37878	-775.23547	353.2681	941.71545	-755.50195	378.85931	789.03778	-772.75378	320.17148	807.49921	-744.97931	332.70374	724.3457	-735.35577	565.88159	934.48853	-1133.12781	575.83948	943.90076	-911.36353	407.06488	962.27679	-1095.14392	422.55768	963.69299	-926.14948	450.28622	626.68567	-1182.22693	411.96848	465.45804	-1159.59802	270.96558	246.54352	-1151.38818	192.02844	91.22776	-1108.01758	146.46432	90.53732	-1064.50439	323.27933	32.88586	-1100.70459	595.67847	618.04266	-848.85901	641.54718	504.89389	-882.28601	673.94446	242.64693	-886.52948	720.86145	64.61985	-929.36041	688.94446	39.38911	-977.64789	876.35583	47.78212	-927.53973	470.70422	1676.92456	-1006.77753	NaN	NaN	NaN	NaN	NaN	NaN	NaN	NaN	NaN	NaN	NaN	NaN	NaN	NaN	NaN	NaN	NaN	NaN	NaN	NaN	NaN	NaN	NaN	NaN	NaN	NaN	NaN	NaN	NaN	NaN
